<svg width="800" height="600" xmlns="http://www.w3.org/2000/svg">

 <g>
  <title>Layer 1</title>
  <g>
   <path d="m398.76351,141.09174c36.098,-50.488 86.782,-69.375 133.644,-64.375c34.247,3.652 66.41,20.134 89.34,46.42c22.916,26.272 36.604,62.237 33.918,104.845c-5.18,82.153 -71.907,189.608 -253.568,298.908l-5.004,3.011l-4.945,-3.16c-181.331,-115.868 -245.241,-225.345 -248.05,-307.643c-1.535,-44.998 14.988,-82.023 40.744,-107.936c25.773,-25.929 60.838,-40.652 96.349,-41.054c44.341,-0.501 89.253,21.162 117.572,70.984zm-121.535,-22.532c-37.811,-3.764 -77.694,21.183 -87.906,58.561c-6.974,22.685 -0.062,32.842 8.515,33.443c12,0.842 13.375,-9.824 16.518,-18.287c15.718,-42.324 38.155,-65.794 66.17,-72.912a97.733,97.733 0 0 0 -3.297,-0.805zm253.175,-22.985c-44.199,-4.715 -92.546,15.449 -124.546,69.208l-9.29,15.608l-7.488,-16.536c-23.834,-52.632 -66.166,-75.285 -107.74,-74.816c-30.553,0.346 -60.78,13.073 -83.059,35.487c-22.296,22.43 -36.592,54.648 -35.25,93.978c2.599,76.176 63.098,178.459 234.346,289.087c171.478,-104.367 234.562,-204.734 239.357,-280.797c2.348,-37.246 -9.456,-68.501 -29.242,-91.183c-19.772,-22.668 -47.526,-36.883 -77.088,-40.036z" fill-rule="nonzero"/>
  </g>
  <text style="cursor: move;" transform="matrix(1.56324 0 0 1.55396 -292.513 -116.1)" stroke="#000" xml:space="preserve" text-anchor="start" font-family="Noto Sans JP" font-size="70" id="svg_2" y="283.78333" x="356" stroke-width="0" fill="#000000">MAU!</text>
 </g>
</svg>